<svg width="6" height="12" viewBox="0 0 6 12" fill="none" xmlns="http://www.w3.org/2000/svg">
<path d="M4.81293 11.77L0.24094 6.62232C0.0763957 6.43968 0 6.23675 0 6C0 5.76325 0.0822723 5.54679 0.24094 5.37091L4.81293 0.229988C4.94809 0.081172 5.10676 0 5.30069 0C5.69442 0 6 0.351748 6 0.798196C6 1.01466 5.9236 1.22435 5.78844 1.37993L1.66895 5.99324L5.78844 10.6201C5.9236 10.7756 6 10.9786 6 11.2018C6 11.6483 5.69442 12 5.30069 12C5.11263 12 4.94809 11.9188 4.81293 11.77Z" fill="white"/>
</svg>
